<?xml version="1.0" standalone="no"?>
<!DOCTYPE svg PUBLIC "-//W3C//DTD SVG 20010904//EN"
 "http://www.w3.org/TR/2001/REC-SVG-20010904/DTD/svg10.dtd">
<svg version="1.0" xmlns="http://www.w3.org/2000/svg"
 width="700.000000pt" height="700.000000pt" viewBox="0 0 700.000000 700.000000"
 preserveAspectRatio="xMidYMid meet">
<metadata>
Created by potrace 1.11, written by Peter Selinger 2001-2013
</metadata>
<g transform="translate(0.000000,700.000000) scale(0.100000,-0.100000)"
fill="#000000" stroke="none">
<path d="M3192 6700 c-121 -26 -234 -110 -248 -185 -10 -54 18 -117 74 -165
26 -22 55 -40 65 -40 9 0 21 -10 26 -22 5 -13 23 -129 41 -258 17 -129 34
-247 37 -262 5 -25 3 -27 -43 -33 -346 -43 -577 -100 -798 -199 -33 -15 -63
-23 -66 -19 -4 5 -17 37 -29 73 -13 36 -50 134 -83 219 -67 172 -68 186 -25
286 45 102 31 186 -36 222 -69 38 -278 11 -374 -48 -91 -56 -224 -196 -244
-256 -28 -84 30 -170 138 -203 36 -11 80 -20 98 -20 28 0 45 -13 123 -92 85
-88 214 -230 257 -284 19 -25 19 -26 2 -36 -11 -5 -65 -44 -120 -86 -181 -136
-418 -382 -537 -559 -19 -29 -38 -53 -41 -53 -4 0 -51 39 -105 87 -55 47 -143
124 -196 171 -53 46 -101 96 -106 110 -6 15 -12 56 -15 92 -6 90 -25 122 -89
153 -59 29 -84 27 -170 -11 -100 -44 -220 -194 -260 -325 -29 -96 -30 -219 -2
-268 27 -46 75 -69 149 -69 58 0 125 26 125 48 0 12 46 32 73 32 13 0 67 -20
122 -44 55 -24 156 -63 225 -86 69 -24 133 -51 144 -61 18 -17 18 -18 -1 -46
-64 -90 -158 -347 -198 -539 -13 -65 -29 -177 -35 -249 -6 -71 -13 -131 -14
-133 -8 -7 -510 79 -523 90 -8 6 -25 32 -38 57 -13 25 -34 56 -47 68 -29 27
-89 53 -123 53 -85 0 -162 -103 -197 -263 -15 -74 -5 -220 21 -296 42 -121
100 -181 175 -181 50 0 80 14 131 61 40 37 45 46 45 84 0 34 5 46 23 58 18 12
456 87 506 87 4 0 11 -46 15 -102 3 -56 15 -145 26 -197 24 -121 135 -457 188
-576 23 -49 38 -93 34 -96 -4 -3 -106 -45 -227 -93 -249 -99 -272 -102 -376
-53 -70 34 -124 35 -170 4 -52 -35 -73 -87 -72 -182 2 -192 114 -368 287 -455
77 -39 113 -39 167 3 71 55 82 76 87 174 2 49 9 94 16 102 15 20 384 321 399
326 7 3 30 -21 51 -53 151 -218 404 -472 613 -612 29 -19 53 -39 53 -43 0 -13
-186 -233 -275 -326 l-81 -83 -87 -8 c-105 -10 -147 -32 -176 -94 -26 -53 -26
-79 0 -132 29 -60 171 -192 250 -232 169 -86 367 -83 413 7 19 36 21 148 4
185 -6 14 -22 33 -35 41 -27 18 -29 40 -8 92 8 21 46 127 84 235 85 241 87
244 109 225 9 -7 69 -37 132 -64 278 -122 435 -166 665 -184 77 -6 142 -13
144 -15 2 -2 -13 -115 -35 -251 l-38 -248 -34 -32 c-18 -18 -39 -33 -46 -33
-24 0 -103 -68 -120 -103 -20 -43 -21 -99 -1 -136 24 -47 111 -109 184 -132
146 -45 299 -33 423 33 97 51 133 131 94 207 -20 39 -102 111 -126 111 -11 0
-26 10 -34 23 -7 12 -30 132 -50 266 -39 266 -39 261 22 261 93 0 378 55 527
101 106 33 301 109 347 137 37 22 42 15 90 -110 142 -372 146 -390 101 -473
-20 -37 -27 -65 -27 -107 -1 -51 2 -60 32 -91 44 -46 102 -61 200 -54 150 10
275 80 378 211 36 46 67 95 70 113 18 98 -38 168 -163 201 -44 12 -93 22 -109
22 -27 0 -48 21 -197 205 -92 112 -167 206 -167 208 0 2 28 21 62 42 197 122
434 360 608 612 l43 62 26 -20 c14 -11 93 -80 175 -152 81 -73 157 -138 167
-145 31 -22 46 -62 53 -145 7 -98 25 -133 79 -158 57 -26 82 -24 155 11 122
57 218 182 261 340 49 175 8 296 -110 324 -39 9 -139 -21 -165 -49 -15 -16
-34 -25 -54 -25 -39 0 -262 81 -362 131 -43 22 -84 39 -93 39 -23 0 -18 22 24
117 108 240 183 526 207 786 4 43 10 79 13 81 3 2 31 0 61 -5 30 -5 143 -23
250 -40 107 -17 200 -35 206 -40 7 -5 17 -29 22 -52 19 -74 91 -127 173 -127
58 0 93 23 138 89 62 91 85 167 84 286 0 113 -16 169 -84 287 -64 110 -133
135 -221 79 -40 -26 -117 -128 -118 -157 -1 -28 -59 -44 -289 -78 -134 -21
-245 -36 -246 -34 -2 2 -11 59 -20 128 -35 277 -97 504 -196 728 -51 114 -52
131 -13 132 5 0 102 36 215 81 191 76 208 81 261 76 34 -3 72 -14 92 -26 49
-31 122 -37 166 -14 109 56 109 298 -1 462 -74 111 -216 211 -299 211 -79 0
-147 -82 -156 -187 -11 -127 4 -108 -220 -288 -113 -91 -209 -163 -214 -160
-4 3 -39 48 -76 102 -115 162 -345 389 -561 552 l-71 54 158 197 c104 130 168
200 186 208 16 6 53 13 83 17 99 11 173 58 186 116 16 70 -59 193 -166 276
-108 83 -215 123 -332 123 -127 0 -172 -42 -169 -158 2 -66 10 -89 48 -135 28
-33 30 -57 9 -97 -8 -16 -44 -108 -80 -204 -68 -185 -90 -236 -104 -236 -4 0
-46 17 -92 39 -85 39 -270 102 -409 139 -78 21 -249 48 -380 60 l-76 7 38 245
c21 135 43 255 49 266 6 12 38 37 71 55 88 50 129 130 108 209 -16 58 -106
135 -190 161 -74 23 -231 33 -298 19z m314 -141 c34 -6 69 -20 82 -32 43 -40
18 -117 -39 -117 -92 0 -127 -75 -164 -345 -9 -66 -18 -121 -20 -124 -23 -22
-61 122 -100 378 -9 52 -43 91 -80 91 -37 0 -62 16 -80 50 -27 51 5 85 94 100
70 12 240 11 307 -1z m-1480 -355 c16 -24 16 -27 0 -57 -10 -18 -27 -49 -38
-70 l-20 -38 22 -72 c20 -64 94 -297 108 -337 7 -21 -69 66 -147 167 -99 131
-147 154 -240 117 -36 -14 -42 -14 -70 0 -37 19 -49 57 -30 92 19 37 141 137
211 174 72 39 101 48 150 49 30 1 41 -4 54 -25z m2793 2 c96 -33 147 -64 209
-130 61 -64 66 -95 20 -129 -25 -19 -32 -19 -80 -8 -83 18 -100 8 -232 -143
-63 -73 -122 -139 -130 -145 -8 -7 5 32 29 86 52 120 87 235 87 286 -1 29 -9
47 -36 77 -48 53 -56 88 -26 112 30 24 74 23 159 -6z m-1164 -590 c628 -97
1162 -441 1509 -973 230 -352 349 -755 348 -1178 0 -356 -70 -663 -221 -971
-302 -618 -869 -1046 -1555 -1175 -141 -27 -456 -37 -607 -20 -748 86 -1391
537 -1720 1206 -101 207 -153 360 -195 585 -22 113 -30 504 -15 637 64 540
327 1032 742 1387 350 300 752 470 1224 520 80 8 392 -3 490 -18z m-2776 -442
c25 -32 26 -52 6 -90 -31 -60 -22 -85 63 -166 42 -42 112 -106 155 -143 42
-36 77 -68 77 -70 0 -2 -78 23 -172 56 -212 72 -250 75 -307 24 -105 -96 -165
-19 -107 139 31 87 74 152 145 220 70 66 106 73 140 30z m5083 -31 c48 -47 71
-79 114 -168 65 -133 75 -184 45 -214 -12 -12 -28 -21 -36 -21 -24 0 -67 25
-94 54 -42 45 -108 36 -343 -50 -54 -20 -102 -34 -107 -32 -6 1 44 50 111 108
66 58 133 123 149 144 33 44 38 93 14 130 -12 18 -13 29 -5 52 29 76 70 75
152 -3z m453 -1449 c24 -25 51 -83 65 -143 26 -109 -10 -305 -63 -345 -37 -27
-88 -12 -100 29 -17 59 -48 111 -75 127 -26 16 -105 31 -312 61 -63 9 -85 16
-85 27 0 15 29 22 227 49 160 21 208 50 234 138 8 29 23 57 32 63 26 14 59 12
77 -6z m-6062 -35 c9 -12 17 -29 17 -39 0 -55 74 -91 255 -124 114 -21 195
-44 195 -55 0 -5 -24 -12 -52 -16 -242 -30 -350 -56 -377 -89 -6 -7 -15 -35
-20 -62 -15 -80 -78 -111 -120 -58 -34 43 -61 147 -61 234 0 77 28 198 53 228
16 20 88 7 110 -19z m847 -1443 c0 -2 -65 -60 -144 -130 -95 -84 -151 -140
-166 -170 -23 -43 -23 -44 -6 -90 18 -48 15 -78 -12 -108 -25 -29 -63 -22
-113 22 -59 50 -109 126 -155 232 -42 97 -47 151 -19 173 32 24 61 17 110 -25
74 -64 75 -64 450 82 43 17 55 20 55 14z m4490 -83 c69 -24 141 -51 160 -58
67 -27 93 -21 177 38 35 24 43 26 71 16 40 -14 46 -35 32 -107 -20 -99 -74
-197 -151 -273 -78 -77 -100 -87 -134 -65 -37 25 -44 45 -32 102 14 71 5 96
-67 172 -191 203 -219 235 -201 228 11 -4 76 -28 145 -53z m-3617 -880 c-3
-27 -26 -113 -49 -192 -56 -182 -56 -206 -4 -266 45 -52 51 -86 18 -109 -32
-22 -87 -20 -162 8 -89 32 -157 78 -221 149 -62 68 -68 95 -30 132 29 29 36
30 92 9 32 -12 52 -14 75 -8 32 10 48 26 205 227 42 53 78 97 79 97 2 0 1 -21
-3 -47z m2679 -151 c38 -51 87 -104 109 -119 35 -23 44 -25 102 -19 55 6 66 5
90 -14 40 -32 35 -62 -19 -120 -60 -65 -122 -103 -216 -134 -77 -26 -132 -32
-155 -18 -7 4 -15 22 -19 39 -5 27 0 37 36 77 56 60 55 78 -15 292 -30 95 -55
176 -55 180 1 13 65 -60 142 -164z m-1358 -169 c22 -111 38 -238 37 -295 -3
-96 19 -131 91 -143 38 -7 88 -52 88 -79 0 -64 -239 -98 -399 -56 -92 23 -105
35 -95 85 9 52 35 75 84 75 58 0 97 39 110 110 10 49 50 314 50 326 0 2 6 4
14 4 8 0 17 -12 20 -27z"/>
<path d="M2583 5056 c-127 -32 -245 -114 -330 -230 -36 -49 -43 -65 -43 -106
0 -68 31 -109 105 -140 40 -16 80 -24 118 -25 66 0 66 0 161 -109 32 -37 99
-101 148 -142 71 -58 97 -74 122 -74 48 0 56 15 56 100 0 61 -7 95 -39 185
-21 61 -49 134 -62 162 l-23 53 31 32 c45 48 63 90 63 147 0 55 -29 119 -63
141 -30 19 -179 23 -244 6z m177 -96 c28 -28 26 -71 -4 -99 -35 -33 -56 -82
-56 -131 0 -35 23 -124 66 -260 3 -8 -28 19 -68 61 -145 150 -203 181 -273
145 -52 -27 -121 23 -107 76 9 35 106 125 171 158 63 31 185 68 229 69 12 1
31 -8 42 -19z"/>
<path d="M3930 5050 c-116 -40 -140 -116 -75 -244 29 -57 35 -81 35 -131 0
-56 -4 -66 -40 -115 -47 -63 -75 -133 -85 -211 -13 -105 37 -165 104 -123 86
56 112 77 155 128 26 30 76 80 111 111 64 56 65 56 149 65 96 10 130 24 174
74 42 48 48 89 23 156 -37 98 -137 200 -248 252 -127 60 -210 70 -303 38z
m125 -85 c83 -22 165 -69 240 -137 55 -50 65 -65 65 -92 0 -61 -31 -74 -137
-60 -45 6 -58 3 -96 -20 -47 -27 -162 -145 -180 -183 -10 -22 -37 -32 -37 -14
0 5 21 69 46 141 49 142 50 156 9 216 -14 20 -30 54 -37 76 -10 35 -9 40 12
63 27 29 37 30 115 10z"/>
<path d="M3279 4220 c-73 -9 -180 -36 -220 -56 -15 -7 -38 -27 -52 -44 -76
-89 -24 -225 111 -294 26 -13 54 -31 61 -40 10 -11 18 -13 31 -6 10 6 41 15
69 21 28 6 51 14 51 18 0 4 -13 28 -29 53 -31 49 -74 78 -114 78 -32 0 -62 27
-75 67 -13 38 -9 42 73 73 113 42 291 37 394 -13 53 -25 29 -115 -36 -132 -39
-9 -89 -50 -120 -96 -14 -22 -24 -41 -22 -42 2 -2 23 -8 47 -14 40 -10 44 -9
59 14 9 13 42 37 73 53 135 68 166 190 70 273 -98 84 -197 107 -371 87z"/>
<path d="M1687 3811 c-96 -63 -151 -197 -151 -366 1 -140 48 -272 121 -336 43
-37 75 -45 125 -30 48 15 136 93 145 130 8 35 21 49 62 70 33 17 290 83 372
96 47 7 83 46 83 90 0 42 -26 72 -73 85 -33 8 -316 74 -368 85 -27 6 -83 53
-83 69 0 19 -70 85 -112 107 -47 24 -85 24 -121 0z m100 -93 c7 -5 17 -34 23
-63 20 -95 54 -122 190 -149 90 -19 170 -49 170 -65 0 -5 -44 -17 -97 -26
-137 -24 -162 -31 -208 -63 -27 -19 -45 -42 -56 -71 -18 -50 -37 -63 -81 -59
-26 2 -37 11 -54 42 -47 83 -56 292 -18 400 12 36 24 51 47 61 30 13 62 10 84
-7z"/>
<path d="M4868 3815 c-15 -9 -47 -46 -72 -85 -56 -87 -95 -108 -215 -121 -86
-8 -227 -48 -268 -75 -39 -25 -63 -57 -63 -84 0 -31 40 -72 91 -93 41 -17 277
-83 332 -93 47 -8 82 -36 107 -83 40 -80 117 -121 194 -107 41 8 93 62 133
138 25 48 28 65 31 181 4 143 -8 198 -72 327 -50 100 -123 135 -198 95z m134
-150 c38 -55 62 -170 54 -251 -9 -90 -42 -190 -69 -209 -53 -37 -117 2 -117
72 0 65 -67 100 -268 137 -46 9 -88 18 -93 22 -11 6 -12 34 -1 34 4 0 57 9
118 19 160 28 234 72 249 147 15 82 80 97 127 29z"/>
<path d="M3210 3113 c0 -18 -74 -65 -121 -77 -58 -16 -94 -46 -110 -93 -25
-78 22 -151 136 -208 58 -29 65 -30 195 -30 156 0 223 16 292 68 86 66 107
130 69 212 -22 49 -46 71 -88 80 -18 3 -47 17 -66 29 -30 21 -38 22 -80 12
-26 -6 -47 -15 -47 -21 0 -24 41 -75 65 -80 14 -3 37 -8 53 -11 36 -7 69 -39
83 -82 19 -57 -7 -81 -122 -109 -185 -47 -379 -4 -379 84 0 43 27 81 62 88 48
10 95 42 123 83 l25 36 -43 13 c-50 15 -47 15 -47 6z"/>
<path d="M2807 2655 c-25 -19 -49 -35 -52 -35 -4 0 -60 -54 -125 -121 l-117
-121 -97 -8 c-101 -9 -173 -38 -196 -80 -33 -62 9 -178 100 -268 203 -204 569
-219 587 -25 4 41 0 58 -31 116 -51 95 -49 141 10 304 57 159 64 208 34 246
-29 36 -58 34 -113 -8z m-73 -395 c-47 -146 -45 -199 10 -246 51 -44 48 -85
-9 -104 -41 -13 -130 14 -215 65 -63 38 -180 155 -180 180 0 20 44 65 63 65 8
0 31 -7 52 -16 64 -26 88 -13 205 109 94 99 105 107 108 85 2 -14 -13 -76 -34
-138z"/>
<path d="M3822 2673 c-36 -7 -45 -37 -38 -123 6 -64 44 -222 84 -346 11 -34 0
-64 -43 -123 -52 -71 -54 -140 -5 -219 26 -43 54 -52 159 -52 199 0 364 96
470 273 65 110 49 188 -50 240 -49 26 -60 28 -118 23 l-63 -7 -57 58 c-31 32
-94 100 -140 151 -105 118 -135 136 -199 125z m337 -438 c32 -16 68 -16 116 0
29 9 89 -34 93 -66 5 -39 -101 -140 -192 -183 -60 -29 -188 -66 -225 -66 -21
0 -51 40 -51 68 0 16 13 43 30 64 61 74 62 101 15 274 -19 70 -35 131 -35 136
0 4 48 -41 108 -100 59 -60 122 -117 141 -127z"/>
</g>
</svg>
