<?xml version="1.0" standalone="no"?>
<!DOCTYPE svg PUBLIC "-//W3C//DTD SVG 20010904//EN"
 "http://www.w3.org/TR/2001/REC-SVG-20010904/DTD/svg10.dtd">
<svg version="1.0" xmlns="http://www.w3.org/2000/svg"
 width="700.000000pt" height="700.000000pt" viewBox="0 0 700.000000 700.000000"
 preserveAspectRatio="xMidYMid meet">
<metadata>
Created by potrace 1.11, written by Peter Selinger 2001-2013
</metadata>
<g transform="translate(0.000000,700.000000) scale(0.100000,-0.100000)"
fill="#000000" stroke="none">
<path d="M3170 6691 c-36 -10 -84 -27 -106 -39 -45 -23 -114 -96 -115 -121 0
-9 -2 -27 -5 -40 -5 -29 27 -99 59 -129 12 -12 42 -32 67 -45 32 -17 45 -30
46 -48 3 -41 15 -123 19 -139 2 -8 7 -42 10 -75 3 -33 8 -67 10 -75 2 -8 7
-35 10 -60 3 -25 8 -56 10 -70 11 -58 14 -110 7 -111 -31 -2 -113 -12 -197
-25 -55 -9 -111 -17 -125 -19 -108 -15 -374 -98 -518 -160 -34 -15 -64 -26
-65 -24 -2 2 -13 36 -26 74 -13 39 -50 138 -82 221 -33 83 -59 166 -59 185 1
19 13 60 29 92 49 104 38 191 -32 232 -58 34 -225 21 -325 -25 -89 -41 -149
-91 -253 -210 -53 -62 -60 -134 -16 -197 31 -46 136 -93 208 -93 32 0 46 -9
105 -68 38 -37 109 -114 158 -170 48 -57 99 -114 112 -127 13 -13 24 -28 24
-32 0 -4 -22 -22 -49 -40 -204 -133 -477 -406 -621 -620 -19 -29 -38 -53 -41
-53 -6 0 -161 131 -189 160 -8 8 -58 52 -111 97 -53 46 -101 95 -107 110 -6
15 -13 59 -16 96 -3 37 -13 80 -22 95 -19 34 -94 75 -132 74 -62 -2 -142 -43
-203 -104 -102 -102 -158 -205 -176 -326 -20 -127 4 -213 67 -244 60 -31 185
-18 212 21 17 24 51 41 80 41 13 0 68 -20 123 -44 55 -24 156 -63 225 -86 69
-24 133 -51 143 -60 18 -17 17 -19 -17 -73 -20 -31 -36 -59 -36 -63 0 -3 -7
-20 -15 -37 -83 -180 -158 -493 -169 -710 -2 -43 -6 -80 -9 -84 -3 -3 -37 0
-74 6 -136 24 -290 48 -358 57 -27 3 -59 10 -71 14 -24 9 -57 52 -68 87 -10
32 -70 80 -116 94 -89 27 -167 -33 -214 -165 -32 -88 -36 -113 -37 -201 0 -78
20 -163 55 -241 52 -113 134 -151 224 -105 51 27 97 77 98 109 2 54 4 60 28
76 14 8 58 21 98 27 40 6 84 12 98 15 14 2 45 7 70 10 25 3 59 7 75 10 17 3
39 7 50 8 11 2 44 6 72 10 l53 8 1 -49 c2 -87 9 -147 29 -250 22 -111 132
-452 181 -559 36 -80 50 -124 41 -125 -23 -2 -57 -15 -242 -89 -193 -77 -208
-82 -262 -77 -34 3 -72 14 -93 27 -51 32 -131 37 -173 10 -96 -60 -101 -269
-9 -430 62 -109 229 -240 307 -240 28 0 104 44 132 76 23 27 38 89 38 159 1
70 4 75 110 160 41 33 126 102 188 152 62 51 116 93 120 92 4 0 44 -50 89
-112 153 -209 332 -386 543 -537 41 -30 77 -55 79 -57 11 -9 -154 -208 -274
-330 -88 -90 -92 -93 -138 -94 -60 -2 -75 -4 -112 -13 -82 -20 -134 -121 -102
-198 20 -47 118 -151 191 -202 78 -55 138 -82 211 -95 142 -26 237 -4 269 64
33 70 17 189 -30 219 -13 9 -24 25 -24 36 0 15 72 232 97 290 3 8 7 20 9 25 5
22 65 177 75 196 8 17 13 18 25 8 62 -51 476 -207 599 -224 22 -4 47 -8 55
-10 21 -6 110 -14 204 -20 43 -2 81 -7 84 -10 3 -3 -5 -72 -17 -153 -31 -200
-31 -194 -36 -218 -2 -11 -7 -45 -11 -75 -7 -62 -29 -92 -89 -120 -138 -65
-177 -194 -85 -280 67 -63 115 -86 220 -107 43 -8 186 -8 220 1 92 22 154 53
198 98 63 65 53 147 -28 223 -27 25 -58 46 -69 46 -30 0 -47 35 -61 125 -6 44
-13 91 -15 105 -15 101 -28 184 -36 239 -5 35 -7 66 -4 69 2 2 15 6 27 7 276
32 492 79 684 150 54 21 132 53 171 72 60 29 76 33 88 23 8 -7 15 -17 15 -23
0 -5 21 -62 46 -126 77 -193 116 -314 116 -354 -1 -21 -12 -58 -26 -83 -14
-25 -28 -67 -32 -92 -5 -39 -2 -53 18 -81 36 -54 81 -75 163 -78 188 -6 347
83 465 259 46 69 51 112 21 168 -10 19 -33 45 -51 58 -39 26 -128 54 -185 57
-22 2 -43 3 -46 4 -9 1 -342 412 -337 416 2 1 44 30 95 64 197 131 398 338
572 589 38 54 46 61 60 49 61 -50 106 -89 176 -153 44 -39 106 -93 137 -119
77 -63 87 -82 92 -167 6 -110 21 -139 85 -170 72 -34 176 5 272 102 89 91 159
256 159 380 0 147 -92 222 -225 183 -27 -9 -60 -26 -72 -39 -14 -15 -33 -24
-53 -24 -39 0 -261 80 -364 131 -43 21 -85 39 -92 39 -21 0 -17 28 12 90 85
180 137 343 189 594 13 59 33 218 34 268 1 30 4 36 19 33 11 -2 43 -6 73 -10
30 -3 66 -8 81 -11 15 -3 39 -7 55 -9 120 -16 290 -48 300 -57 7 -6 18 -28 23
-49 21 -77 90 -129 172 -129 57 0 92 23 136 88 75 110 104 255 78 383 -18 86
-97 241 -138 270 -87 62 -191 13 -260 -123 -15 -29 -37 -59 -48 -66 -11 -7
-69 -19 -128 -28 -59 -8 -118 -16 -132 -19 -14 -2 -45 -7 -70 -10 -25 -4 -52
-9 -61 -10 -76 -14 -119 -15 -120 -3 0 7 -2 20 -3 28 -2 8 -6 44 -10 80 -15
143 -44 289 -86 436 -29 100 -94 272 -129 343 -34 67 -35 78 -4 86 15 3 42 13
58 20 17 7 104 43 195 80 195 78 224 82 329 36 38 -17 81 -31 96 -31 43 0 93
29 117 69 33 52 33 218 0 305 -43 116 -148 233 -261 291 -50 25 -132 25 -168
-1 -38 -27 -72 -99 -79 -165 -12 -125 4 -105 -221 -284 -113 -91 -209 -163
-213 -160 -5 3 -34 41 -64 85 -133 189 -344 397 -593 584 l-51 39 56 71 c31
39 59 73 62 76 3 3 47 58 99 123 51 64 103 123 115 129 11 6 56 17 100 24 208
34 240 165 78 329 -118 121 -235 176 -382 181 -86 3 -99 1 -128 -19 -71 -49
-77 -181 -12 -262 17 -21 30 -46 30 -55 0 -10 -13 -48 -29 -86 -17 -38 -53
-131 -81 -208 -55 -150 -76 -196 -89 -196 -4 0 -41 15 -82 34 -109 50 -411
151 -484 161 -42 6 -111 16 -130 20 -49 8 -190 23 -236 24 -21 1 -26 5 -23 24
2 12 20 123 39 247 20 124 41 235 46 246 6 12 37 36 68 54 57 32 110 93 112
132 1 10 2 28 3 41 4 41 -16 77 -67 123 -58 52 -95 69 -190 90 -90 18 -177 17
-257 -5z m370 -136 c39 -9 70 -41 70 -73 0 -34 -25 -72 -48 -72 -45 0 -93 -22
-107 -49 -14 -28 -55 -174 -60 -215 -6 -55 -19 -152 -21 -158 -1 -5 -2 -17 -3
-28 -1 -20 -25 -28 -35 -11 -3 5 -8 26 -12 46 -7 46 -7 47 -32 170 -12 55 -24
122 -28 148 -8 60 -30 88 -74 93 -73 8 -116 71 -79 118 21 27 44 33 144 42 39
4 71 7 72 8 4 3 186 -13 213 -19z m-1524 -333 c6 -4 15 -21 18 -39 6 -25 3
-36 -13 -52 -31 -31 -49 -73 -44 -106 4 -32 23 -93 84 -278 21 -64 39 -120 39
-124 0 -11 -77 79 -149 174 -36 48 -81 98 -100 110 -40 27 -93 30 -136 7 -51
-26 -115 8 -115 63 0 49 164 187 276 232 50 20 120 27 140 13z m2805 -15 c88
-31 147 -67 203 -124 71 -72 73 -111 8 -144 -28 -14 -38 -15 -70 -4 -79 28
-101 11 -308 -236 -64 -76 -72 -72 -30 15 43 91 93 237 96 281 4 53 1 62 -35
105 -45 53 -53 85 -30 110 25 27 83 26 166 -3z m-1236 -581 c17 -3 50 -7 75
-11 210 -29 413 -92 625 -195 202 -98 336 -187 500 -335 111 -100 131 -120
214 -220 228 -272 373 -557 460 -905 62 -247 73 -619 26 -864 -8 -44 -18 -93
-21 -110 -27 -153 -116 -393 -212 -569 -170 -315 -406 -573 -703 -770 -362
-240 -763 -361 -1199 -359 -69 0 -150 3 -180 6 -125 14 -147 17 -200 27 -566
107 -1070 433 -1401 909 -195 280 -326 615 -364 935 -4 28 -8 61 -11 75 -6 35
-6 397 0 440 3 19 8 60 11 90 13 124 63 324 115 465 22 60 128 282 152 320 7
10 36 56 65 101 144 226 374 458 608 614 136 91 147 97 265 154 146 70 282
120 417 152 133 32 134 33 293 53 57 8 412 5 465 -3z m-2695 -469 c13 -23 13
-31 -3 -74 -9 -26 -17 -57 -17 -69 0 -20 78 -102 195 -205 27 -24 65 -59 85
-76 l35 -33 -30 9 c-16 5 -90 31 -163 56 -74 26 -160 49 -191 52 -55 5 -58 4
-105 -36 -55 -48 -88 -52 -112 -16 -58 89 74 345 219 427 27 15 34 16 52 4 11
-7 27 -25 35 -39z m5063 -2 c58 -56 110 -134 148 -228 42 -101 46 -140 20
-166 -31 -31 -63 -26 -114 19 -35 31 -53 40 -81 40 -43 0 -145 -27 -262 -70
-47 -18 -99 -36 -115 -40 l-31 -9 24 22 c12 12 61 56 108 97 157 139 180 167
180 218 0 18 -7 43 -15 56 -16 24 -9 62 17 93 23 28 71 15 121 -32z m458
-1457 c121 -100 91 -508 -37 -508 -28 0 -64 32 -64 57 0 9 -9 36 -20 59 -30
60 -64 74 -250 99 -126 17 -192 30 -197 38 -9 15 10 26 52 31 62 8 186 26 229
32 59 9 118 32 144 56 12 12 30 46 38 75 8 29 23 57 32 63 24 13 55 12 73 -2z
m-6060 -34 c10 -9 19 -27 19 -39 0 -59 74 -95 260 -130 106 -19 200 -45 200
-55 0 -4 -42 -13 -92 -19 -140 -18 -159 -21 -213 -33 -114 -25 -155 -57 -155
-123 0 -36 -43 -77 -77 -73 -86 10 -134 249 -83 407 11 35 26 71 32 79 16 18
82 10 109 -14z m849 -1448 c0 -2 -46 -44 -103 -94 -152 -133 -197 -178 -213
-217 -17 -43 -17 -37 1 -81 20 -48 19 -66 -6 -98 -32 -41 -70 -35 -129 20 -60
56 -100 116 -146 223 -43 100 -49 146 -23 172 29 29 63 23 114 -21 38 -33 53
-40 88 -40 43 1 54 4 272 88 132 51 145 55 145 48z m4402 -50 c323 -122 322
-122 405 -66 58 39 65 42 92 30 37 -15 43 -30 35 -89 -15 -110 -87 -238 -180
-318 -59 -51 -78 -58 -111 -41 -24 12 -47 64 -36 81 12 20 11 103 -3 129 -8
15 -25 35 -39 44 -13 8 -45 41 -70 72 -26 31 -74 85 -107 120 -33 34 -58 62
-54 62 3 0 34 -11 68 -24z m-3530 -913 c-2 -27 -24 -115 -49 -198 -53 -176
-53 -205 1 -265 103 -114 -22 -160 -201 -74 -58 27 -97 56 -151 110 -65 64
-73 77 -70 105 2 21 13 39 30 52 25 19 31 19 70 7 89 -27 110 -19 173 58 139
175 185 235 185 243 0 5 4 9 8 9 5 0 7 -21 4 -47z m2671 -138 c102 -139 136
-161 230 -150 52 6 61 5 83 -16 30 -28 30 -54 3 -93 -62 -89 -213 -172 -334
-183 -63 -6 -65 -5 -75 21 -16 43 -13 54 30 100 59 63 58 69 -22 311 -16 50
-36 110 -43 135 l-14 45 41 -45 c23 -25 68 -81 101 -125z m-1331 -281 c11 -65
20 -152 19 -192 -2 -83 18 -129 59 -138 69 -15 88 -26 106 -59 28 -53 13 -65
-136 -103 -43 -11 -182 -2 -249 16 -91 25 -105 37 -96 85 10 54 26 69 84 78
29 4 59 14 68 20 21 18 40 59 46 99 3 19 10 67 16 106 6 40 14 96 17 125 9 71
22 105 35 92 6 -6 19 -64 31 -129z"/>
<path d="M2565 5051 c-123 -35 -242 -123 -320 -235 -42 -61 -49 -105 -24 -156
26 -55 39 -63 152 -99 21 -7 54 -10 76 -6 38 6 40 5 97 -61 116 -131 264 -261
306 -267 37 -6 68 13 69 42 4 120 -13 201 -73 341 -51 120 -51 123 -21 151 40
37 71 113 67 161 -6 58 -42 117 -83 134 -45 19 -172 17 -246 -5z m197 -90 c4
-3 10 -20 14 -36 4 -24 -1 -39 -29 -75 -38 -48 -56 -100 -50 -140 3 -24 30
-120 59 -210 l14 -45 -77 80 c-138 143 -191 176 -246 151 -55 -24 -64 -25 -94
-6 -56 34 -50 71 26 149 95 98 334 180 383 132z"/>
<path d="M3953 5060 c-44 -10 -92 -40 -116 -72 -31 -41 -26 -94 18 -182 34
-69 37 -82 33 -139 -4 -53 -11 -70 -44 -114 -76 -102 -107 -270 -59 -323 26
-29 74 -22 121 19 19 17 39 31 43 31 5 0 29 21 53 47 54 59 102 108 153 155
37 34 46 38 115 44 117 9 185 48 217 122 53 126 -136 341 -356 406 -57 17
-124 19 -178 6z m138 -106 c67 -21 151 -75 214 -135 45 -43 55 -58 55 -86 0
-26 -6 -37 -30 -51 -25 -16 -37 -17 -78 -9 -82 17 -114 5 -196 -76 -40 -40
-86 -90 -103 -112 -17 -22 -34 -37 -37 -34 -3 3 14 66 39 140 50 148 50 162 5
237 -40 66 -44 94 -19 126 17 22 26 25 62 21 23 -3 63 -12 88 -21z"/>
<path d="M3226 4214 c-148 -28 -218 -63 -242 -120 -42 -100 13 -211 134 -273
39 -20 90 -70 136 -133 39 -53 88 -65 136 -33 9 6 38 39 65 75 28 35 57 73 65
83 8 10 41 32 74 50 101 54 143 155 97 231 -26 42 -116 101 -186 122 -59 17
-179 17 -279 -2z m309 -124 c50 -17 66 -27 71 -45 9 -38 -20 -80 -65 -94 -49
-14 -117 -79 -151 -143 l-24 -47 -41 77 c-48 90 -86 118 -167 121 -20 1 -33
22 -42 68 -7 31 -6 32 51 53 32 12 76 25 98 30 67 13 200 3 270 -20z"/>
<path d="M4881 3820 c-31 -14 -51 -35 -85 -89 -56 -86 -97 -111 -200 -117 -71
-5 -212 -42 -275 -73 -38 -18 -81 -69 -78 -92 6 -37 39 -67 99 -92 64 -26 310
-97 338 -97 23 0 80 -38 87 -58 29 -77 104 -132 181 -132 34 0 49 7 83 37 92
83 131 234 106 413 -11 81 -80 240 -119 277 -39 35 -89 44 -137 23z m120 -155
c38 -58 57 -138 53 -225 -4 -83 -3 -82 -27 -161 -19 -63 -30 -76 -73 -85 -42
-8 -74 21 -80 71 -8 64 -32 87 -114 113 -41 12 -87 25 -104 28 -93 15 -150 30
-153 41 -4 12 40 29 102 38 123 17 150 25 203 61 39 25 61 55 67 87 16 85 80
101 126 32z"/>
<path d="M1693 3817 c-30 -17 -86 -84 -110 -132 -89 -177 -49 -469 78 -579 46
-39 69 -43 130 -24 45 13 139 106 139 137 0 22 34 52 77 69 40 16 281 73 327
78 58 6 104 39 112 79 10 57 -26 100 -97 113 -116 23 -337 76 -366 88 -18 7
-44 31 -57 53 -66 104 -167 155 -233 118z m102 -107 c3 -4 7 -25 11 -46 8 -56
42 -111 79 -128 18 -9 70 -23 116 -32 90 -18 169 -47 169 -63 0 -5 -21 -12
-47 -16 -27 -5 -52 -9 -58 -11 -5 -1 -28 -5 -49 -8 -122 -20 -200 -69 -212
-133 -12 -65 -92 -76 -126 -17 -47 80 -60 306 -23 408 21 57 60 80 107 64 15
-6 30 -14 33 -18z"/>
<path d="M3307 3241 c-16 -10 -45 -43 -65 -72 -58 -86 -106 -129 -147 -129
-61 0 -125 -71 -125 -138 0 -121 163 -212 370 -206 154 5 268 51 323 132 34
49 38 87 16 146 -23 62 -44 84 -85 92 -48 9 -110 57 -134 104 -20 40 -82 90
-110 90 -8 0 -28 -8 -43 -19z m64 -133 c9 -18 22 -44 28 -58 15 -32 44 -51 85
-57 65 -9 106 -52 106 -111 0 -39 -10 -46 -105 -73 -101 -28 -214 -30 -304 -3
-54 16 -66 24 -80 52 -14 31 -14 36 4 69 16 29 30 39 66 50 56 16 107 65 139
134 25 53 34 53 61 -3z"/>
<path d="M2799 2653 c-30 -20 -106 -89 -170 -155 -65 -65 -123 -118 -130 -119
-142 -8 -174 -14 -226 -45 -50 -29 -64 -51 -65 -105 -1 -83 90 -210 203 -281
168 -107 376 -120 464 -28 45 47 46 108 2 191 -48 90 -47 154 6 293 56 146 69
207 50 243 -28 55 -61 57 -134 6z m-33 -270 c-3 -21 -19 -80 -36 -132 -17 -52
-31 -110 -32 -130 0 -56 28 -110 65 -124 39 -15 11 -77 -40 -90 -47 -11 -185
47 -266 112 -51 42 -117 118 -117 135 0 22 48 66 67 63 10 -2 31 -9 46 -15 15
-7 38 -10 50 -8 12 3 28 5 35 5 8 1 61 51 119 111 58 61 108 110 110 110 3 0
2 -17 -1 -37z"/>
<path d="M3810 2667 c-23 -12 -25 -18 -26 -92 0 -78 26 -200 73 -339 21 -64
20 -80 -10 -119 -68 -90 -79 -157 -39 -233 15 -27 38 -54 52 -61 56 -27 227
-16 315 19 52 21 139 75 173 108 47 44 130 175 138 215 9 51 -4 92 -42 129
-43 42 -106 60 -174 51 l-51 -7 -57 59 c-31 32 -90 97 -131 144 -110 125 -164
156 -221 126z m208 -312 c53 -57 123 -112 163 -129 29 -12 39 -12 67 0 52 21
122 -14 122 -62 0 -29 -96 -125 -164 -163 -63 -36 -175 -71 -234 -74 -78 -3
-96 57 -38 128 35 42 60 129 46 157 -4 7 -20 60 -34 118 -15 58 -30 114 -33
125 -4 13 7 6 31 -20 20 -22 54 -58 74 -80z"/>
</g>
</svg>
